<svg width="31" height="30" viewBox="0 0 31 30" fill="none" xmlns="http://www.w3.org/2000/svg">
<path d="M25.9231 29.7667C25.1417 29.7667 24.473 29.4857 23.9169 28.9236C23.3609 28.3615 23.0822 27.6864 23.0811 26.8983V25.1854C21.3272 24.976 19.8625 24.2068 18.6869 22.878C17.5091 21.5526 16.9201 19.98 16.9201 18.16V10.3784C16.9201 9.58914 17.1923 8.91405 17.7367 8.35315C18.2834 7.79107 18.9591 7.51002 19.7639 7.51002H28.158C28.9393 7.51002 29.608 7.79107 30.1641 8.35315C30.7202 8.91523 30.9988 9.58973 31 10.3766V18.16C31 19.9788 30.4117 21.552 29.235 22.8797C28.0583 24.2074 26.5936 24.976 24.8408 25.1854V26.8983C24.8408 27.2178 24.9423 27.4799 25.1453 27.6846C25.3482 27.8894 25.6075 27.9917 25.9231 27.9917H29.2402C29.4889 27.9917 29.6978 28.0763 29.8667 28.2455C30.0356 28.4159 30.1201 28.6272 30.1201 28.8792C30.1201 29.1313 30.0356 29.3419 29.8667 29.5111C29.6978 29.6803 29.4889 29.7655 29.2402 29.7667H25.9231ZM27.0405 17.2725H29.2402V10.3784C29.2402 10.0826 29.1329 9.8264 28.9182 9.60985C28.7047 9.3933 28.4513 9.28502 28.158 9.28502H19.7639C19.4483 9.28502 19.1891 9.3933 18.9861 9.60985C18.7831 9.8264 18.6817 10.0826 18.6817 10.3784V13.7225H20.0015C20.811 13.7225 21.5864 13.9101 22.3279 14.2852C23.0693 14.6603 23.6993 15.1869 24.2179 15.8649C24.5311 16.3347 24.9429 16.6868 25.4532 16.9211C25.9636 17.1554 26.4927 17.2725 27.0405 17.2725ZM6.0923 22.3916H4.19704C3.4157 22.3916 2.74699 22.1112 2.19091 21.5503C1.63247 20.9882 1.35326 20.3137 1.35326 19.5268V6.62253H0.879881C0.631168 6.62253 0.422343 6.53733 0.253406 6.36693C0.0844688 6.19653 0 5.9853 0 5.73325C0 5.4812 0.0844688 5.27057 0.253406 5.10135C0.422343 4.93214 0.631168 4.84753 0.879881 4.84753H6.0923V1.77678H4.67041C4.4217 1.77678 4.21287 1.69099 4.04394 1.51941C3.875 1.34783 3.79053 1.1366 3.79053 0.885736C3.79053 0.63487 3.875 0.424236 4.04394 0.253837C4.21287 0.0834369 4.4217 -0.00117109 4.67041 1.22414e-05H9.27219C9.52208 1.22414e-05 9.73149 0.0852122 9.90043 0.255612C10.0682 0.426012 10.1521 0.637236 10.1521 0.889286C10.1521 1.14134 10.0682 1.35197 9.90043 1.52118C9.73267 1.6904 9.52325 1.77501 9.27219 1.77501H7.85207V4.84753H13.0645C13.3132 4.84753 13.522 4.93273 13.691 5.10313C13.8599 5.27353 13.9438 5.48475 13.9426 5.7368C13.9414 5.98885 13.8576 6.19949 13.691 6.3687C13.5244 6.53792 13.315 6.62253 13.0627 6.62253H12.5893V19.5268C12.5893 20.3149 12.3113 20.9894 11.7552 21.5503C11.1991 22.1112 10.5298 22.3922 9.74733 22.3934H7.85207V29.5271C7.85207 29.7105 7.76994 29.8484 7.6057 29.9407C7.44145 30.033 7.27955 30.0176 7.12 29.8945L6.44425 29.3762C6.33163 29.2898 6.24482 29.1845 6.18381 29.0603C6.1228 28.936 6.0923 28.7958 6.0923 28.6396V22.3916ZM4.19704 20.6166H9.74733C10.0629 20.6166 10.3222 20.5142 10.5251 20.3095C10.7281 20.1048 10.8296 19.8433 10.8296 19.525V16.9992H7.41212C7.20447 16.9992 7.02263 16.9228 6.8666 16.7702C6.71174 16.6175 6.63431 16.4323 6.63431 16.2146C6.63431 15.9957 6.71174 15.8105 6.8666 15.659C7.02263 15.5052 7.20447 15.4283 7.41212 15.4283H10.8296V11.8108H7.41212C7.20447 11.8108 7.02263 11.7345 6.8666 11.5819C6.71057 11.4292 6.63314 11.244 6.63431 11.0263C6.63548 10.8086 6.71291 10.6228 6.8666 10.4689C7.02028 10.3151 7.20213 10.2394 7.41212 10.2417H10.8296V6.62253H3.11478V19.5268C3.11478 19.8439 3.21626 20.1054 3.41922 20.3113C3.62218 20.5148 3.88145 20.6166 4.19704 20.6166Z" fill="white"/>
</svg>
